<svg width="120" height="120" viewBox="0 0 120 120" fill="none" xmlns="http://www.w3.org/2000/svg">
<path fill-rule="evenodd" clip-rule="evenodd" d="M18.8561 114.85C17.7255 114.85 16.595 114.85 15.4644 114.525C13.6878 114.039 12.0727 113.228 10.4577 111.93C8.51956 110.308 6.90448 108.523 5.93543 106.252C5.12789 104.306 4.80487 102.359 4.80487 100.25C4.96638 99.6014 4.96638 98.9526 5.12789 98.3037C5.28939 97.817 5.12789 97.6548 4.80487 97.3304C3.02828 94.8971 1.57471 92.4639 0.121131 90.0306C-0.0403771 89.7062 -0.0403771 89.3818 0.121131 89.2196C0.928672 87.9218 1.73621 86.7863 2.70526 85.6508C3.5128 84.6775 4.48185 83.7042 5.28939 82.7309C5.4509 82.5687 5.4509 82.5687 5.61241 82.4064C5.93543 82.082 6.25844 81.9198 6.58146 82.5687C8.35805 85.3263 10.4577 87.9218 12.5573 90.3551C14.1723 92.4639 15.9489 94.4105 17.7255 96.3571C19.5021 98.1415 21.1172 100.088 23.0553 101.872C25.4779 104.144 27.9005 106.415 30.4847 108.523C32.5843 110.146 34.6839 111.768 36.945 113.228C37.268 113.39 37.1065 113.552 36.945 113.714C34.8454 115.985 32.4228 118.094 29.8386 119.879C29.6771 120.041 29.5156 120.041 29.3541 119.879C26.9315 118.419 24.5089 116.959 22.4093 115.336C21.7632 114.85 21.2787 114.525 20.4712 114.85C20.1482 115.012 19.8251 114.85 19.3406 115.012C19.3406 114.85 19.1791 114.688 18.8561 114.85Z" fill="#282A2B"/>
<path fill-rule="evenodd" clip-rule="evenodd" d="M118.991 43.3119C116.891 31.7945 111.4 22.0615 103.001 14.1129C92.8263 4.70429 80.8747 0.162217 67.308 0C64.5623 0 61.9782 0.162217 59.2326 0.648868C53.4183 1.62217 48.0885 3.40656 42.9202 6.16425C40.1746 7.6242 37.429 9.40858 34.8448 11.5174C33.3912 12.8151 31.9377 13.9507 30.4841 15.4106C29.515 16.5461 28.3845 17.5194 27.4154 18.655C26.6079 19.6283 25.8004 20.4393 24.9928 21.4126C23.5392 23.3592 22.0857 25.3058 20.9551 27.4147C19.34 30.1724 17.8865 33.2545 16.7559 36.3366C16.1099 38.2832 15.4638 40.0676 15.1408 42.0142C14.6563 44.123 14.3333 46.2318 14.0103 48.3407C13.8488 49.6384 13.8488 50.9361 13.6872 52.2339C13.6872 52.5583 13.6872 52.7205 13.6872 53.045V56.7759C13.8488 57.1004 13.6872 57.4248 13.8488 57.587C13.8488 59.2092 14.0103 60.8314 14.3333 62.2913C14.4948 63.9135 14.8178 65.6979 15.3023 67.32C15.4638 67.6445 15.6253 67.9689 15.3023 68.2933C14.6563 69.1044 13.8488 69.9155 13.2027 70.7266C12.2337 72.0243 11.2646 73.4843 10.2956 74.782C10.1341 75.1065 10.1341 75.2687 10.2956 75.4309C11.1031 76.7286 11.7491 78.0264 12.5567 79.3241C14.8178 82.8929 17.2404 86.2994 19.9861 89.5438C21.6011 91.4904 23.2162 93.2748 24.8313 95.0591C25.6389 95.8702 26.4464 96.6813 27.4154 97.4924C28.3845 98.4657 29.3535 99.2768 30.3226 100.25C31.6147 101.548 33.0682 102.683 34.5218 103.819C36.2984 105.279 38.2365 106.739 40.1746 108.036C42.1127 109.334 44.0508 110.632 45.9889 111.767C46.4734 112.092 46.7964 112.092 47.1194 111.767C49.2191 110.308 51.1572 108.848 52.9337 107.063C53.0952 106.901 53.2568 106.739 53.4183 106.901C53.7413 107.063 54.2258 107.063 54.5488 107.225C56.4869 107.712 58.2635 108.036 60.2016 108.199C61.6552 108.361 63.1088 108.361 64.4008 108.523C64.8854 108.685 65.3699 108.523 65.6929 108.523C66.0159 108.523 66.5004 108.523 66.8235 108.523C67.308 108.361 67.7925 108.523 68.1155 108.523C69.2461 108.523 70.5381 108.361 71.6687 108.199C74.5758 107.874 77.483 107.388 80.2286 106.577C84.7509 105.279 88.9501 103.494 92.9878 101.061C97.6715 98.3035 101.709 94.8969 105.424 90.6793C117.699 77.2153 122.221 61.318 118.991 43.3119ZM98.4791 86.4616C92.6648 92.6259 85.5584 96.3569 77.3215 98.4657C73.6068 99.439 69.7306 99.7634 65.8544 99.6012C54.7103 99.1146 45.0198 95.2214 36.9444 87.435C29.9996 80.7841 25.3158 72.6732 23.5392 63.1024C20.7936 48.6651 24.1853 35.5255 33.5528 24.3325C39.8516 16.7083 48.0885 12.1663 57.6175 10.2197C61.0091 9.40858 64.5623 9.08415 67.954 9.24637C77.806 9.5708 86.689 12.8151 94.2798 19.1416C102.194 25.6303 107.362 33.7411 109.785 43.7986C110.592 47.3674 111.077 51.0983 111.077 54.8293C110.915 66.9956 106.877 77.5397 98.4791 86.4616Z" fill="#282A2B"/>
<path fill-rule="evenodd" clip-rule="evenodd" d="M66.3402 18.007C83.6216 18.007 98.4804 30.0111 102.357 47.0438C104.456 56.4524 103.164 65.3744 98.6419 73.9719C98.1573 74.9452 97.6728 75.9185 97.0268 76.7295C92.8276 81.5961 85.0752 80.1361 82.8141 73.9719C81.6835 70.5653 79.4224 68.132 76.3537 66.5099C71.67 64.0766 66.9862 64.4011 62.464 67.1587C50.8354 74.1341 35.9767 68.132 32.1005 54.9925C30.3239 49.1527 30.9699 43.4751 33.8771 38.2841C39.5298 27.5778 48.0898 21.0891 59.7184 18.6559C60.5259 18.4936 61.3335 18.3314 62.141 18.3314C63.4331 18.007 65.0482 17.8448 66.3402 18.007ZM81.3605 88.7336C82.491 88.4092 83.7831 88.0847 84.5906 87.1114C86.8518 84.6782 85.3982 80.785 82.8141 80.2983C81.845 80.1361 81.0375 79.4872 80.2299 78.8384C79.4224 78.0273 78.9379 76.8918 78.4533 75.9185C77.1613 72.9986 74.0926 71.2142 71.024 71.7008C66.9863 72.3497 64.0791 76.7295 65.8557 81.4338C67.7938 86.3004 72.4775 89.3825 77.9688 89.3825C78.9379 89.2203 80.2299 89.058 81.3605 88.7336Z" fill="#3779B8"/>
</svg>
