<svg width="206" height="18" viewBox="0 0 206 18" fill="none" xmlns="http://www.w3.org/2000/svg">
<path d="M8.79006 16.8797L10.1699 12.7967H12.674L13.4406 10.4315H10.9876L12.2652 6.74689H14.6927L15.4337 4.40664H13.0573L14.4883 0.273858H11.6519L10.2466 4.40664H8.04904L9.45442 0.273858H6.64365L5.23826 4.40664H2.81078L2.0442 6.74689H4.39503L3.16851 10.4315H0.792128L0 12.7967H2.32528L0.945442 16.8797H3.75622L5.13605 12.7967H7.35912L5.95373 16.8797H8.79006ZM8.15125 10.4315H5.97929L7.23136 6.74689H9.42887L8.15125 10.4315Z" fill="#F5F5F5"/>
<path d="M25.6761 17.1784C29.79 17.1784 32.0131 14.8631 33.1118 12.722L29.3301 10.9793C28.7679 12.2988 27.3114 13.3942 25.6761 13.3942C22.8908 13.3942 20.9233 11.3029 20.9233 8.58921C20.9233 5.87552 22.8908 3.78423 25.6761 3.78423C27.3114 3.78423 28.7679 4.87967 29.3301 6.19917L33.1118 4.45643C31.9875 2.26556 29.79 0 25.6761 0C20.4378 0 16.4516 3.46058 16.4516 8.58921C16.4516 13.6929 20.4378 17.1784 25.6761 17.1784Z" fill="#F5F5F5"/>
<path d="M43.266 17.1784C48.4787 17.1784 52.3627 13.6432 52.3627 8.58921C52.3627 3.53527 48.4787 0 43.266 0C38.0533 0 34.1437 3.53527 34.1437 8.58921C34.1437 13.6432 38.0533 17.1784 43.266 17.1784ZM43.266 13.3942C40.4296 13.3942 38.6154 11.278 38.6154 8.58921C38.6154 5.87552 40.4296 3.78423 43.266 3.78423C46.0767 3.78423 47.891 5.87552 47.891 8.58921C47.891 11.278 46.0767 13.3942 43.266 13.3942Z" fill="#F5F5F5"/>
<path d="M70.4187 16.8797V0.273858H65.9981V9.41079L59.0989 0.273858H54.5761V16.8797H58.9712V7.26971L66.177 16.8797H70.4187Z" fill="#F5F5F5"/>
<path d="M81.7444 17.1784C83.0732 17.1784 84.3252 16.9295 85.4496 16.5062L86.7016 18L89.7679 15.61L88.6947 14.3402C90.049 12.8714 90.8411 10.8797 90.8411 8.58921C90.8411 3.53527 86.9572 0 81.7444 0C76.5317 0 72.6222 3.53527 72.6222 8.58921C72.6222 13.6432 76.5317 17.1784 81.7444 17.1784ZM81.7444 13.3942C78.9081 13.3942 77.0939 11.278 77.0939 8.58921C77.0939 5.87552 78.9081 3.78423 81.7444 3.78423C84.5552 3.78423 86.3695 5.87552 86.3695 8.58921C86.3695 9.46058 86.165 10.2573 85.8328 10.9544L84.223 9.06224L81.1823 11.4523L82.741 13.2946C82.4088 13.3693 82.0766 13.3942 81.7444 13.3942Z" fill="#F5F5F5"/>
<path d="M101.129 17.1784C106.572 17.1784 109.153 14.2656 109.153 10.1328V0.273858H104.707V10.0083C104.707 11.9751 103.48 13.3942 101.129 13.3942C98.7273 13.3942 97.5263 11.9751 97.5263 10.0083V0.273858H93.0546V10.1577C93.0546 14.2407 95.6354 17.1784 101.129 17.1784Z" fill="#F5F5F5"/>
<path d="M124.714 16.8797V13.1452H116.614V10.332H124.535V6.59751H116.614V4.0083H124.714V0.273858H112.219V16.8797H124.714Z" fill="#F5F5F5"/>
<path d="M141.805 16.8797L138.33 10.7801C139.915 10.2324 141.729 8.6888 141.729 5.80083C141.729 2.71369 139.582 0.273858 135.801 0.273858H127.266V16.8797H131.661V11.3029H133.91L136.772 16.8797H141.805ZM135.136 7.56846H131.661V4.0083H135.136C136.286 4.0083 137.257 4.6556 137.257 5.77593C137.257 6.94606 136.286 7.56846 135.136 7.56846Z" fill="#F5F5F5"/>
<path d="M150.957 16.8797V2.11618H156.374V0.273858H143.444V2.11618H148.836V16.8797H150.957Z" fill="#F5F5F5"/>
<path d="M170.359 16.8797V15.0373H161.313V9.3112H170.18V7.46888H161.313V2.11618H170.359V0.273858H159.192V16.8797H170.359Z" fill="#F5F5F5"/>
<path d="M181.815 17.1784C184.83 17.1784 186.874 15.7842 188.305 13.8921L186.491 12.9212C185.52 14.3402 183.757 15.3361 181.815 15.3361C178.084 15.3361 175.248 12.5228 175.248 8.58921C175.248 4.63071 178.084 1.84232 181.815 1.84232C183.757 1.84232 185.52 2.86307 186.491 4.25726L188.28 3.28631C186.926 1.41909 184.83 0 181.815 0C176.909 0 173.051 3.48548 173.051 8.58921C173.051 13.6929 176.909 17.1784 181.815 17.1784Z" fill="#F5F5F5"/>
<path d="M205.216 16.8797V0.273858H203.095V7.41909H193.129V0.273858H191.008V16.8797H193.129V9.26141H203.095V16.8797H205.216Z" fill="#F5F5F5"/>
</svg>
