<svg width="271" height="140" viewBox="0 0 271 140" fill="none" xmlns="http://www.w3.org/2000/svg">
<path d="M127.966 137V140H130.966V137H127.966ZM127.966 3.59999H130.966V0.599991H127.966V3.59999ZM93.5656 3.59999V0.599991H90.5656V3.59999H93.5656ZM93.5656 53.4V56.4H96.5656V53.4H93.5656ZM38.1656 53.4H35.1656V56.4H38.1656V53.4ZM38.1656 3.59999H41.1656V0.599991H38.1656V3.59999ZM3.76562 3.59999V0.599991H0.765625V3.59999H3.76562ZM3.76562 137H0.765625V140H3.76562V137ZM38.1656 137V140H41.1656V137H38.1656ZM38.1656 83.4V80.4H35.1656V83.4H38.1656ZM93.5656 83.4H96.5656V80.4H93.5656V83.4ZM93.5656 137H90.5656V140H93.5656V137ZM130.966 137V3.59999H124.966V137H130.966ZM127.966 0.599991H93.5656V6.59999H127.966V0.599991ZM90.5656 3.59999V53.4H96.5656V3.59999H90.5656ZM93.5656 50.4H38.1656V56.4H93.5656V50.4ZM41.1656 53.4V3.59999H35.1656V53.4H41.1656ZM38.1656 0.599991H3.76562V6.59999H38.1656V0.599991ZM0.765625 3.59999V137H6.76562V3.59999H0.765625ZM3.76562 140H38.1656V134H3.76562V140ZM41.1656 137V83.4H35.1656V137H41.1656ZM38.1656 86.4H93.5656V80.4H38.1656V86.4ZM90.5656 83.4V137H96.5656V83.4H90.5656ZM93.5656 140H127.966V134H93.5656V140ZM265.808 137V140H270.904L268.431 135.544L265.808 137ZM238.608 88L237.605 85.1727L234.265 86.3577L235.985 89.456L238.608 88ZM152.008 3.59999V0.599991H149.008V3.59999H152.008ZM152.008 137H149.008V140H152.008V137ZM186.408 137V140H189.408V137H186.408ZM186.408 92.2V89.2H183.408V92.2H186.408ZM204.008 92.2L206.691 90.8584L205.862 89.2H204.008V92.2ZM226.408 137L223.725 138.342L224.554 140H226.408V137ZM186.408 62.2H183.408V65.2H186.408V62.2ZM186.408 33.6V30.6H183.408V33.6H186.408ZM268.431 135.544L241.231 86.544L235.985 89.456L263.185 138.456L268.431 135.544ZM239.611 90.8273C252.986 86.0815 268.208 72.691 268.208 48H262.208C262.208 69.709 249.03 81.1185 237.605 85.1727L239.611 90.8273ZM268.208 48C268.208 34.9182 263.768 23.0255 255.242 14.3921C246.702 5.74386 234.294 0.599991 218.808 0.599991V6.59999C232.921 6.59999 243.713 11.2561 250.973 18.6079C258.248 25.9744 262.208 36.2818 262.208 48H268.208ZM218.808 0.599991H152.008V6.59999H218.808V0.599991ZM149.008 3.59999V137H155.008V3.59999H149.008ZM152.008 140H186.408V134H152.008V140ZM189.408 137V92.2H183.408V137H189.408ZM186.408 95.2H204.008V89.2H186.408V95.2ZM201.325 93.5416L223.725 138.342L229.091 135.658L206.691 90.8584L201.325 93.5416ZM226.408 140H265.808V134H226.408V140ZM213.608 59.2H186.408V65.2H213.608V59.2ZM189.408 62.2V33.6H183.408V62.2H189.408ZM186.408 36.6H213.608V30.6H186.408V36.6ZM213.608 36.6C217.56 36.6 221.01 37.7446 223.406 39.6657C225.74 41.5363 227.208 44.234 227.208 47.8H233.208C233.208 42.366 230.876 37.9637 227.159 34.9843C223.506 32.0554 218.656 30.6 213.608 30.6V36.6ZM227.208 47.8C227.208 51.6026 225.711 54.3367 223.406 56.1843C221.027 58.0916 217.587 59.2 213.608 59.2V65.2C218.629 65.2 223.488 63.8084 227.159 60.8657C230.905 57.8633 233.208 53.3974 233.208 47.8H227.208Z" fill="#308077"/>
</svg>
