<svg width="40" height="40" viewBox="0 0 40 40" fill="none" xmlns="http://www.w3.org/2000/svg">
<path fill-rule="evenodd" clip-rule="evenodd" d="M20 0C8.95431 0 0 8.9541 0 20C0 31.0459 8.95431 40 20 40C31.0457 40 40 31.0459 40 20C40 8.9541 31.0457 0 20 0ZM20.3332 9.33398C27.1342 9.33398 32.6667 13.791 32.6667 19.2705C32.6667 21.4629 31.8105 23.4385 30.0231 25.3838C27.4361 28.3408 21.6497 31.9424 20.3332 32.4932C19.0539 33.0283 19.2017 32.1924 19.2602 31.8604L19.265 31.833L19.4409 30.7852C19.4825 30.4717 19.5256 29.9873 19.4012 29.6777C19.2629 29.3369 18.7163 29.1602 18.3146 29.0742C12.3877 28.2959 8 24.1826 8 19.2705C8 13.791 13.5332 9.33398 20.3332 9.33398Z" fill="white"/>
<path fill-rule="evenodd" clip-rule="evenodd" d="M17.7621 16.666H16.905C16.7736 16.666 16.6667 16.7763 16.6667 16.9118V22.4203C16.6667 22.556 16.7736 22.666 16.905 22.666H17.7621C17.8935 22.666 18.0001 22.556 18.0001 22.4203V16.9118C18.0001 16.7763 17.8935 16.666 17.7621 16.666Z" fill="white"/>
<path fill-rule="evenodd" clip-rule="evenodd" d="M23.7495 16.666H22.8473C22.7089 16.666 22.5967 16.7763 22.5967 16.9118V20.1844L20.0282 16.7753C20.0223 16.7666 20.0156 16.7583 20.0087 16.7504L20.007 16.7489C20.0021 16.7433 19.9971 16.7385 19.9919 16.7336C19.9905 16.7322 19.989 16.731 19.9873 16.7295C19.9831 16.7256 19.9786 16.722 19.9739 16.7186C19.972 16.7167 19.9698 16.7152 19.9675 16.7135C19.9631 16.7106 19.9589 16.7075 19.9545 16.7048C19.952 16.7031 19.9495 16.7016 19.9468 16.7004C19.9424 16.6978 19.9379 16.6951 19.9335 16.6929C19.9308 16.6917 19.9283 16.6903 19.9256 16.6893C19.9209 16.6871 19.9162 16.6849 19.9113 16.6832C19.9083 16.6823 19.9059 16.6813 19.9032 16.6803C19.8982 16.6786 19.8933 16.6769 19.8881 16.6757C19.8854 16.6747 19.8825 16.6743 19.8795 16.6733C19.8746 16.6723 19.8699 16.6711 19.8652 16.6701C19.8617 16.6697 19.858 16.6692 19.8546 16.6689C19.8502 16.668 19.8457 16.6677 19.8413 16.6672C19.8371 16.6667 19.8329 16.6667 19.8285 16.6665C19.8252 16.6665 19.8228 16.666 19.8196 16.666H18.9175C18.7792 16.666 18.6667 16.7763 18.6667 16.9118V22.4203C18.6667 22.556 18.7792 22.666 18.9175 22.666H19.8196C19.9582 22.666 20.0704 22.556 20.0704 22.4203V19.1486L22.6421 22.562C22.6598 22.5868 22.6818 22.6069 22.7057 22.6229C22.7064 22.6234 22.7074 22.6241 22.7082 22.6248C22.7134 22.628 22.7185 22.6311 22.7237 22.634C22.7262 22.6355 22.7284 22.6364 22.7309 22.6377C22.7346 22.6398 22.7388 22.6418 22.7427 22.6435C22.7469 22.6452 22.7506 22.6469 22.755 22.6486C22.7575 22.6495 22.76 22.6505 22.7624 22.6512C22.7683 22.6534 22.7738 22.6551 22.7794 22.6568C22.7807 22.6568 22.7819 22.6573 22.7831 22.6575C22.8036 22.6629 22.8251 22.666 22.8473 22.666H23.7495C23.8881 22.666 24.0001 22.556 24.0001 22.4203V16.9118C24.0001 16.7763 23.8881 16.666 23.7495 16.666Z" fill="white"/>
<path fill-rule="evenodd" clip-rule="evenodd" d="M15.7564 21.2866H13.3675V16.9122C13.3675 16.7763 13.2581 16.666 13.1236 16.666H12.2441C12.1093 16.666 12 16.7763 12 16.9122V22.4196V22.42C12 22.4862 12.0262 22.5461 12.0682 22.5902C12.0692 22.5914 12.0702 22.5926 12.0716 22.5938C12.0728 22.595 12.074 22.596 12.0752 22.5972C12.1192 22.6398 12.1783 22.666 12.2439 22.666H15.7564C15.8912 22.666 16 22.5555 16 22.4196V21.5329C16 21.3969 15.8912 21.2866 15.7564 21.2866Z" fill="white"/>
<path fill-rule="evenodd" clip-rule="evenodd" d="M28.4231 18.0454C28.5579 18.0454 28.6667 17.9354 28.6667 17.7992V16.9125C28.6667 16.7765 28.5579 16.666 28.4231 16.666H24.9109H24.9104C24.8446 16.666 24.7852 16.6927 24.7412 16.7356C24.7403 16.7365 24.7391 16.7373 24.7384 16.7382C24.7369 16.7397 24.7357 16.7411 24.7345 16.7426C24.6927 16.7867 24.6667 16.8463 24.6667 16.9122V16.9125V22.4198V22.42C24.6667 22.4862 24.6929 22.5461 24.735 22.5902C24.7359 22.5914 24.7372 22.5928 24.7384 22.5938C24.7393 22.595 24.7408 22.5962 24.742 22.5972C24.7857 22.6396 24.845 22.666 24.9104 22.666H28.4231C28.5579 22.666 28.6667 22.5555 28.6667 22.4198V21.5329C28.6667 21.3971 28.5579 21.2866 28.4231 21.2866H26.0344V20.3556H28.4231C28.5579 20.3556 28.6667 20.2453 28.6667 20.1094V19.2227C28.6667 19.0867 28.5579 18.9762 28.4231 18.9762H26.0344V18.0454H28.4231Z" fill="white"/>
</svg>
