<svg width="192" height="290" viewBox="0 0 192 290" fill="none" xmlns="http://www.w3.org/2000/svg">
<rect x="0.130737" y="44.8483" width="45.1776" height="244.563" fill="#589F97"/>
<path d="M144.134 -3.27366e-08L189.312 44.8483L0.130644 44.8483L45.3082 -8.31345e-06L144.134 -3.27366e-08Z" fill="#589F97"/>
<path d="M38.9552 155.568L61.544 110.719L189.312 110.719L144.134 155.568L38.9552 155.568Z" fill="#589F97"/>
<mask id="mask0" mask-type="alpha" maskUnits="userSpaceOnUse" x="0" y="44" width="46" height="181">
<rect opacity="0.45" x="0.130737" y="44.8483" width="45.1776" height="179.393" fill="#B9B9B9"/>
</mask>
<g mask="url(#mask0)">
<ellipse opacity="0.5" cx="39.2981" cy="44.9461" rx="49.9474" ry="28.5372" fill="url(#paint0_radial)"/>
<ellipse opacity="0.5" cx="65.7793" cy="155.568" rx="46.5894" ry="30.8332" fill="url(#paint1_radial)"/>
</g>
<mask id="mask1" mask-type="alpha" maskUnits="userSpaceOnUse" x="45" y="0" width="100" height="45">
<rect opacity="0.45" x="144.134" y="0.00012207" width="44.8483" height="98.826" transform="rotate(90 144.134 0.00012207)" fill="#B9B9B9"/>
</mask>
<g mask="url(#mask1)">
<ellipse opacity="0.5" cx="146.252" cy="37.1402" rx="44.1476" ry="28.9419" transform="rotate(90 146.252 37.1402)" fill="url(#paint2_radial)"/>
</g>
<path d="M144.134 0L189.312 44.8483V110.719H144.134V0Z" fill="#589F97"/>
<mask id="mask2" mask-type="alpha" maskUnits="userSpaceOnUse" x="144" y="49" width="46" height="62">
<rect opacity="0.45" x="189.312" y="110.719" width="45.1776" height="61.6665" transform="rotate(-180 189.312 110.719)" fill="#B9B9B9"/>
</mask>
<g mask="url(#mask2)">
<ellipse opacity="0.5" cx="151.899" cy="114.924" rx="44.4717" ry="28.7309" transform="rotate(-180 151.899 114.924)" fill="url(#paint3_radial)"/>
</g>
<mask id="mask3" mask-type="alpha" maskUnits="userSpaceOnUse" x="62" y="110" width="63" height="46">
<rect opacity="0.45" width="44.8483" height="62.1192" transform="matrix(-4.37979e-08 1 1 4.32473e-08 62.2499 110.719)" fill="#B9B9B9"/>
</mask>
<g mask="url(#mask3)">
<ellipse opacity="0.7" rx="80.936" ry="28.8557" transform="matrix(0.642507 0.76628 0.770882 -0.636979 70.7256 146.5)" fill="url(#paint4_radial)"/>
</g>
<path d="M38.9551 155.568L61.5439 110.719L188.959 259.63L154.723 289.061L38.9551 155.568Z" fill="#589F97"/>
<defs>
<radialGradient id="paint0_radial" cx="0" cy="0" r="1" gradientUnits="userSpaceOnUse" gradientTransform="translate(39.2981 44.9461) rotate(90) scale(28.5372 49.9474)">
<stop/>
<stop offset="0.917127" stop-opacity="0"/>
</radialGradient>
<radialGradient id="paint1_radial" cx="0" cy="0" r="1" gradientUnits="userSpaceOnUse" gradientTransform="translate(65.7793 155.568) rotate(90) scale(30.8332 46.5894)">
<stop/>
<stop offset="0.917127" stop-opacity="0"/>
</radialGradient>
<radialGradient id="paint2_radial" cx="0" cy="0" r="1" gradientUnits="userSpaceOnUse" gradientTransform="translate(146.252 37.1402) rotate(90) scale(28.9419 44.1476)">
<stop/>
<stop offset="0.917127" stop-opacity="0"/>
</radialGradient>
<radialGradient id="paint3_radial" cx="0" cy="0" r="1" gradientUnits="userSpaceOnUse" gradientTransform="translate(151.899 114.924) rotate(90) scale(28.7309 44.4717)">
<stop/>
<stop offset="0.917127" stop-opacity="0"/>
</radialGradient>
<radialGradient id="paint4_radial" cx="0" cy="0" r="1" gradientUnits="userSpaceOnUse" gradientTransform="translate(80.936 28.8557) rotate(90) scale(28.8557 80.936)">
<stop/>
<stop offset="0.917127" stop-opacity="0"/>
</radialGradient>
</defs>
</svg>
