<svg width="295" height="64" viewBox="0 0 295 64" fill="none" xmlns="http://www.w3.org/2000/svg">
<path d="M0 9.91769H9.88683V64H0V9.91769Z" fill="#589F97"/>
<path d="M31.5143 4.26225e-07L41.4011 9.91767L-4.71119e-06 9.91767L9.88683 -1.40507e-06L31.5143 4.26225e-07Z" fill="#589F97"/>
<path d="M8.49646 34.4019L13.4399 24.4842L41.4011 24.4842L31.5142 34.4019L8.49646 34.4019Z" fill="#589F97"/>
<mask id="mask0" mask-type="alpha" maskUnits="userSpaceOnUse" x="0" y="9" width="10" height="41">
<path opacity="0.45" d="M0 9.91769H9.88683V49.5884H0V9.91769Z" fill="#B9B9B9"/>
</mask>
<g mask="url(#mask0)">
<path opacity="0.5" d="M19.5022 9.93923C19.5022 13.4245 14.6084 16.2499 8.57154 16.2499C2.5347 16.2499 -2.35913 13.4245 -2.35913 9.93923C-2.35913 6.45395 2.5347 3.62857 8.57154 3.62857C14.6084 3.62857 19.5022 6.45395 19.5022 9.93923Z" fill="url(#paint0_radial)"/>
<path opacity="0.5" d="M24.5626 34.402C24.5626 38.1677 19.9978 41.2204 14.3668 41.2204C8.73584 41.2204 4.17102 38.1677 4.17102 34.402C4.17102 30.6363 8.73584 27.5836 14.3668 27.5836C19.9978 27.5836 24.5626 30.6363 24.5626 34.402Z" fill="url(#paint1_radial)"/>
</g>
<mask id="mask1" mask-type="alpha" maskUnits="userSpaceOnUse" x="9" y="0" width="23" height="10">
<path opacity="0.45" d="M31.5143 0L31.5143 9.91768L9.88684 9.91767L9.88684 -9.63317e-07L31.5143 0Z" fill="#B9B9B9"/>
</mask>
<g mask="url(#mask1)">
<path opacity="0.5" d="M31.9778 17.9757C28.4797 17.9757 25.644 13.6048 25.644 8.213C25.644 2.8212 28.4797 -1.54971 31.9778 -1.54971C35.4758 -1.54971 38.3115 2.8212 38.3115 8.213C38.3115 13.6048 35.4758 17.9757 31.9778 17.9757Z" fill="url(#paint2_radial)"/>
</g>
<path d="M31.5143 0L41.4011 9.91767V24.4843H31.5143V0Z" fill="#589F97"/>
<mask id="mask2" mask-type="alpha" maskUnits="userSpaceOnUse" x="31" y="10" width="11" height="15">
<path opacity="0.45" d="M41.4011 24.4843L31.5143 24.4843L31.5143 10.8475L41.4011 10.8475L41.4011 24.4843Z" fill="#B9B9B9"/>
</mask>
<g mask="url(#mask2)">
<path opacity="0.5" d="M23.4812 25.4141C23.4812 21.9051 27.8385 19.0606 33.2136 19.0606C38.5886 19.0606 42.9459 21.9051 42.9459 25.4141C42.9459 28.923 38.5886 31.7676 33.2136 31.7676C27.8385 31.7676 23.4812 28.923 23.4812 25.4141Z" fill="url(#paint3_radial)"/>
</g>
<mask id="mask3" mask-type="alpha" maskUnits="userSpaceOnUse" x="13" y="24" width="15" height="11">
<path opacity="0.45" d="M13.5944 24.4843L13.5944 34.402L27.1888 34.402L27.1888 24.4843L13.5944 24.4843Z" fill="#B9B9B9"/>
</mask>
<g mask="url(#mask3)">
<path opacity="0.7" d="M26.8296 46.1116C29.5181 43.8668 26.6025 35.9066 20.3173 28.3321C14.0321 20.7576 6.75751 16.437 4.06897 18.6818C1.38042 20.9266 4.29607 28.8868 10.5812 36.4613C16.8664 44.0359 24.1411 48.3564 26.8296 46.1116Z" fill="url(#paint4_radial)"/>
</g>
<path d="M8.49653 34.402L13.4399 24.4843L41.3239 57.4141L33.8315 63.9226L8.49653 34.402Z" fill="#589F97"/>
<path d="M71.1304 28.2666L67.8114 22.1688C69.3245 21.6213 71.0571 20.0782 71.0571 17.1911C71.0571 14.1048 69.0072 11.6657 65.3954 11.6657H57.2445V28.2666H61.442V22.6915H63.5895L66.3228 28.2666H71.1304ZM64.7609 18.9582H61.442V15.3991H64.7609C65.8591 15.3991 66.7865 16.0462 66.7865 17.1662C66.7865 18.3359 65.8591 18.9582 64.7609 18.9582Z" fill="#444444"/>
<path d="M77.5762 28.2666V11.6657H73.3788V28.2666H77.5762Z" fill="#444444"/>
<path d="M86.5567 28.5653C90.925 28.5653 93.341 26.3502 93.341 23.0151C93.341 16.8426 84.1407 18.3857 84.1407 16.2702C84.1407 15.5733 84.6776 15.0755 85.8978 15.0755C87.5085 15.0755 89.29 15.6479 90.6566 16.7928L92.9506 13.7315C91.2179 12.2133 88.9483 11.4168 86.3371 11.4168C82.164 11.4168 79.8456 13.9057 79.8456 16.6933C79.8456 23.0897 89.0703 21.2728 89.0703 23.5377C89.0703 24.3342 88.1918 24.9066 86.7519 24.9066C84.5312 24.9066 82.7253 23.9111 81.5539 22.7164L79.3331 25.9271C80.9682 27.5199 83.2622 28.5653 86.5567 28.5653Z" fill="#444444"/>
<path d="M102.733 28.2666V15.3991H107.272V11.6657H93.9717V15.3991H98.5352V28.2666H102.733Z" fill="#444444"/>
<path d="M121.203 28.2666V24.5333H113.467V21.7208H121.032V17.9875H113.467V15.3991H121.203V11.6657H109.27V28.2666H121.203Z" fill="#444444"/>
<path d="M138.356 28.2666L131.694 19.4311L138.014 11.6657H132.841L127.838 18.4853V11.6657H123.64V28.2666H127.838V23.4133L128.936 22.0195L133.207 28.2666H138.356Z" fill="#444444"/>
<path d="M150.049 28.2666V21.7208H157.615V17.9875H150.049V15.3991H157.785V11.6657H145.852V28.2666H150.049Z" fill="#444444"/>
<path d="M174.726 28.2666L168.576 11.6657H163.304L157.179 28.2666H161.938L162.743 25.8773H169.161L169.967 28.2666H174.726ZM168.014 22.1439H163.866L165.94 15.8968L168.014 22.1439Z" fill="#444444"/>
<path d="M181.885 28.5653C186.253 28.5653 188.669 26.3502 188.669 23.0151C188.669 16.8426 179.469 18.3857 179.469 16.2702C179.469 15.5733 180.006 15.0755 181.226 15.0755C182.836 15.0755 184.618 15.6479 185.985 16.7928L188.279 13.7315C186.546 12.2133 184.276 11.4168 181.665 11.4168C177.492 11.4168 175.174 13.9057 175.174 16.6933C175.174 23.0897 184.398 21.2728 184.398 23.5377C184.398 24.3342 183.52 24.9066 182.08 24.9066C179.859 24.9066 178.053 23.9111 176.882 22.7164L174.661 25.9271C176.296 27.5199 178.59 28.5653 181.885 28.5653Z" fill="#444444"/>
<path d="M194.83 28.2666V11.6657H190.632V28.2666H194.83Z" fill="#444444"/>
<path d="M208.496 28.2666V24.5333H201.955V11.6657H197.758V28.2666H208.496Z" fill="#444444"/>
<path d="M225.39 28.2666L218.728 19.4311L225.049 11.6657H219.875L214.872 18.4853V11.6657H210.675V28.2666H214.872V23.4133L215.971 22.0195L220.241 28.2666H225.39Z" fill="#444444"/>
<path d="M233.452 28.5653C238.431 28.5653 242.14 25.0311 242.14 19.9786C242.14 14.9262 238.431 11.3919 233.452 11.3919C228.474 11.3919 224.74 14.9262 224.74 19.9786C224.74 25.0311 228.474 28.5653 233.452 28.5653ZM233.452 24.7822C230.744 24.7822 229.011 22.6666 229.011 19.9786C229.011 17.2657 230.744 15.1751 233.452 15.1751C236.137 15.1751 237.869 17.2657 237.869 19.9786C237.869 22.6666 236.137 24.7822 233.452 24.7822Z" fill="#444444"/>
<path d="M262.728 28.2666V11.6657H256.895L253.479 20.6755L250.087 11.6657H244.254V28.2666H248.452V17.4648L252.551 28.2666H254.406L258.53 17.4648V28.2666H262.728Z" fill="#444444"/>
<path d="M279.611 28.5653C284.809 28.5653 287.274 25.6533 287.274 21.5217V11.6657H283.027V21.3973C283.027 23.3635 281.856 24.7822 279.611 24.7822C277.317 24.7822 276.17 23.3635 276.17 21.3973V11.6657H271.899V21.5466C271.899 25.6284 274.364 28.5653 279.611 28.5653Z" fill="#444444"/>
<path d="M294.4 28.2666V11.6657H290.202V28.2666H294.4Z" fill="#444444"/>
<path d="M61.6897 53.511L62.6658 50.5065H64.4613L64.8971 49.0665H63.1365L64.0952 46.1154H65.8384L66.2567 44.6932H64.5659L65.5769 41.6532H63.9209L62.9448 44.6932H61.3062L62.2824 41.6532H60.6438L59.6676 44.6932H57.9071L57.4713 46.1154H59.1796L58.2383 49.0665H56.53L56.0768 50.5065H57.7502L56.7566 53.511H58.3952L59.3887 50.5065H61.0447L60.0337 53.511H61.6897ZM61.4979 49.0665H59.8768L60.8181 46.1154H62.4567L61.4979 49.0665Z" fill="#444444"/>
<path d="M73.3367 53.7243C75.8991 53.7243 77.3634 52.2843 78.2001 50.8088L76.0734 49.7599C75.5854 50.7377 74.5395 51.4843 73.3367 51.4843C71.2275 51.4843 69.6936 49.831 69.6936 47.591C69.6936 45.351 71.2275 43.6976 73.3367 43.6976C74.5395 43.6976 75.5854 44.4621 76.0734 45.4221L78.2001 44.3554C77.3808 42.8799 75.8991 41.4576 73.3367 41.4576C69.8504 41.4576 67.1486 43.9465 67.1486 47.591C67.1486 51.2354 69.8504 53.7243 73.3367 53.7243Z" fill="#444444"/>
<path d="M85.1818 53.7243C88.7029 53.7243 91.2653 51.1643 91.2653 47.591C91.2653 44.0176 88.7029 41.4576 85.1818 41.4576C81.678 41.4576 79.1156 44.0176 79.1156 47.591C79.1156 51.1643 81.678 53.7243 85.1818 53.7243ZM85.1818 51.4843C83.0377 51.4843 81.6606 49.7954 81.6606 47.591C81.6606 45.3688 83.0377 43.6976 85.1818 43.6976C87.3258 43.6976 88.7203 45.3688 88.7203 47.591C88.7203 49.7954 87.3258 51.4843 85.1818 51.4843Z" fill="#444444"/>
<path d="M103.409 53.511V41.6532H100.934V49.1021L95.5473 41.6532H93.0023V53.511H95.4776V45.7777L101.021 53.511H103.409Z" fill="#444444"/>
<path d="M111.21 53.7243C112.221 53.7243 113.145 53.511 113.964 53.1377L114.905 54.2399L116.631 52.7999L115.777 51.7866C116.735 50.7199 117.293 49.2621 117.293 47.591C117.293 44.0176 114.731 41.4576 111.21 41.4576C107.706 41.4576 105.144 44.0176 105.144 47.591C105.144 51.1643 107.706 53.7243 111.21 53.7243ZM111.21 51.4843C109.066 51.4843 107.689 49.7954 107.689 47.591C107.689 45.3688 109.066 43.6976 111.21 43.6976C113.354 43.6976 114.748 45.3688 114.748 47.591C114.748 48.4443 114.539 49.2265 114.156 49.8665L112.866 48.3199L111.157 49.7599L112.43 51.2888C112.046 51.4132 111.645 51.4843 111.21 51.4843Z" fill="#444444"/>
<path d="M124.277 53.7243C127.816 53.7243 129.524 51.7154 129.524 48.7643V41.6532H126.996V48.6932C126.996 50.3465 126.073 51.4843 124.277 51.4843C122.482 51.4843 121.54 50.3465 121.54 48.6932V41.6532H119.03V48.7821C119.03 51.6977 120.739 53.7243 124.277 53.7243Z" fill="#444444"/>
<path d="M140.042 53.511V51.2888H134.29V48.6043H139.92V46.3821H134.29V43.8754H140.042V41.6532H131.814V53.511H140.042Z" fill="#444444"/>
<path d="M151.39 53.511L148.775 48.9954C150.03 48.6932 151.32 47.5732 151.32 45.4754C151.32 43.271 149.839 41.6532 147.416 41.6532H141.977V53.511H144.452V49.2977H146.265L148.549 53.511H151.39ZM147.05 47.0754H144.452V43.8754H147.05C148.043 43.8754 148.793 44.4799 148.793 45.4754C148.793 46.471 148.043 47.0754 147.05 47.0754Z" fill="#444444"/>
<path d="M157.71 53.511V42.9688H161.406V41.6532H152.585V42.9688H156.263V53.511H157.71Z" fill="#444444"/>
<path d="M170.946 53.511V52.1954H164.775V48.1065H170.824V46.791H164.775V42.9688H170.946V41.6532H163.329V53.511H170.946Z" fill="#444444"/>
<path d="M178.761 53.7243C180.818 53.7243 182.213 52.7288 183.189 51.3777L181.951 50.6843C181.289 51.6977 180.086 52.4088 178.761 52.4088C176.216 52.4088 174.281 50.3999 174.281 47.591C174.281 44.7643 176.216 42.7732 178.761 42.7732C180.086 42.7732 181.289 43.5021 181.951 44.4976L183.171 43.8043C182.248 42.471 180.818 41.4576 178.761 41.4576C175.414 41.4576 172.782 43.9465 172.782 47.591C172.782 51.2354 175.414 53.7243 178.761 53.7243Z" fill="#444444"/>
<path d="M194.725 53.511V41.6532H193.278V46.7554H186.48V41.6532H185.033V53.511H186.48V48.071H193.278V53.511H194.725Z" fill="#444444"/>
<defs>
<radialGradient id="paint0_radial" cx="0" cy="0" r="1" gradientUnits="userSpaceOnUse" gradientTransform="translate(8.57154 9.93923) rotate(90) scale(6.31066 10.9307)">
<stop/>
<stop offset="0.917127" stop-opacity="0"/>
</radialGradient>
<radialGradient id="paint1_radial" cx="0" cy="0" r="1" gradientUnits="userSpaceOnUse" gradientTransform="translate(14.3668 34.402) rotate(90) scale(6.8184 10.1958)">
<stop/>
<stop offset="0.917127" stop-opacity="0"/>
</radialGradient>
<radialGradient id="paint2_radial" cx="0" cy="0" r="1" gradientUnits="userSpaceOnUse" gradientTransform="translate(31.9778 8.213) rotate(-180) scale(6.33374 9.76271)">
<stop/>
<stop offset="0.917127" stop-opacity="0"/>
</radialGradient>
<radialGradient id="paint3_radial" cx="0" cy="0" r="1" gradientUnits="userSpaceOnUse" gradientTransform="translate(33.2136 25.4141) rotate(-90) scale(6.35351 9.73235)">
<stop/>
<stop offset="0.917127" stop-opacity="0"/>
</radialGradient>
<radialGradient id="paint4_radial" cx="0" cy="0" r="1" gradientUnits="userSpaceOnUse" gradientTransform="translate(15.4493 32.3967) rotate(-39.8606) scale(6.34184 17.8215)">
<stop/>
<stop offset="0.917127" stop-opacity="0"/>
</radialGradient>
</defs>
</svg>
