<svg width="286" height="140" viewBox="0 0 286 140" fill="none" xmlns="http://www.w3.org/2000/svg">
<path d="M37.4469 137V140H40.4469V137H37.4469ZM37.4469 92.2V89.2H34.4469V92.2H37.4469ZM3.04688 3.59999V0.599991H0.046875V3.59999H3.04688ZM3.04688 137H0.046875V140H3.04688V137ZM37.4469 62.2H34.4469V65.2H37.4469V62.2ZM37.4469 33.6V30.6H34.4469V33.6H37.4469ZM40.4469 137V92.2H34.4469V137H40.4469ZM37.4469 95.2H69.8469V89.2H37.4469V95.2ZM69.8469 95.2C85.5506 95.2 97.9607 89.8946 106.445 81.1945C114.907 72.5163 119.247 60.6824 119.247 48H113.247C113.247 59.3176 109.387 69.5837 102.149 77.0055C94.933 84.4054 84.1432 89.2 69.8469 89.2V95.2ZM119.247 48C119.247 35.2237 114.911 23.3397 106.448 14.6339C97.963 5.90565 85.5507 0.599991 69.8469 0.599991V6.59999C84.143 6.59999 94.9308 11.3943 102.146 18.8161C109.383 26.2603 113.247 36.5763 113.247 48H119.247ZM69.8469 0.599991H3.04688V6.59999H69.8469V0.599991ZM0.046875 3.59999V137H6.04688V3.59999H0.046875ZM3.04688 140H37.4469V134H3.04688V140ZM65.2469 59.2H37.4469V65.2H65.2469V59.2ZM40.4469 62.2V33.6H34.4469V62.2H40.4469ZM37.4469 36.6H65.2469V30.6H37.4469V36.6ZM65.2469 36.6C69.3049 36.6 72.5553 37.7458 74.7412 39.6249C76.8725 41.4571 78.2469 44.1979 78.2469 48H84.2469C84.2469 42.6021 82.2213 38.1429 78.6525 35.075C75.1385 32.0542 70.3889 30.6 65.2469 30.6V36.6ZM78.2469 48C78.2469 51.6816 76.8876 54.3736 74.7528 56.1902C72.5624 58.0539 69.305 59.2 65.2469 59.2V65.2C70.3887 65.2 75.1313 63.7461 78.641 60.7598C82.2061 57.7263 84.2469 53.3184 84.2469 48H78.2469ZM282.962 137V140H285.962V137H282.962ZM282.962 3.59999H285.962V0.599991H282.962V3.59999ZM235.163 3.59999V0.599991H233.106L232.364 2.51788L235.163 3.59999ZM207.163 76L204.362 77.0754L207.152 84.343L209.961 77.0821L207.163 76ZM179.363 3.59999L182.163 2.52461L181.424 0.599991H179.363V3.59999ZM131.562 3.59999V0.599991H128.562V3.59999H131.562ZM131.562 137H128.562V140H131.562V137ZM165.962 137V140H168.962V137H165.962ZM165.962 50.2L168.76 49.117L162.962 50.2H165.962ZM199.562 137L196.765 138.083L197.507 140H199.562V137ZM214.763 137V140H216.814L217.558 138.089L214.763 137ZM248.562 50.2H251.562L245.767 49.1114L248.562 50.2ZM248.562 137H245.562V140H248.562V137ZM285.962 137V3.59999H279.962V137H285.962ZM282.962 0.599991H235.163V6.59999H282.962V0.599991ZM232.364 2.51788L204.364 74.9179L209.961 77.0821L237.961 4.6821L232.364 2.51788ZM209.963 74.9246L182.163 2.52461L176.562 4.67537L204.362 77.0754L209.963 74.9246ZM179.363 0.599991H131.562V6.59999H179.363V0.599991ZM128.562 3.59999V137H134.562V3.59999H128.562ZM131.562 140H165.962V134H131.562V140ZM168.962 137V50.2H162.962V137H168.962ZM163.165 51.283L196.765 138.083L202.36 135.917L168.76 49.117L163.165 51.283ZM199.562 140H214.763V134H199.562V140ZM217.558 138.089L251.358 51.2886L245.767 49.1114L211.967 135.911L217.558 138.089ZM245.562 50.2V137H251.562V50.2H245.562ZM248.562 140H282.962V134H248.562V140Z" fill="#308077"/>
</svg>
