<svg width="252" height="140" viewBox="0 0 252 140" fill="none" xmlns="http://www.w3.org/2000/svg">
<path d="M38.0289 137V140H41.0289V137H38.0289ZM38.0289 92.2V89.2H35.0289V92.2H38.0289ZM3.62891 3.59999V0.599991H0.628906V3.59999H3.62891ZM3.62891 137H0.628906V140H3.62891V137ZM38.0289 62.2H35.0289V65.2H38.0289V62.2ZM38.0289 33.6V30.6H35.0289V33.6H38.0289ZM41.0289 137V92.2H35.0289V137H41.0289ZM38.0289 95.2H70.4289V89.2H38.0289V95.2ZM70.4289 95.2C86.1326 95.2 98.5428 89.8946 107.027 81.1945C115.489 72.5163 119.829 60.6824 119.829 48H113.829C113.829 59.3176 109.969 69.5837 102.731 77.0055C95.5151 84.4054 84.7252 89.2 70.4289 89.2V95.2ZM119.829 48C119.829 35.2237 115.493 23.3397 107.03 14.6339C98.545 5.90565 86.1328 0.599991 70.4289 0.599991V6.59999C84.7251 6.59999 95.5128 11.3943 102.728 18.8161C109.965 26.2603 113.829 36.5763 113.829 48H119.829ZM70.4289 0.599991H3.62891V6.59999H70.4289V0.599991ZM0.628906 3.59999V137H6.62891V3.59999H0.628906ZM3.62891 140H38.0289V134H3.62891V140ZM65.8289 59.2H38.0289V65.2H65.8289V59.2ZM41.0289 62.2V33.6H35.0289V62.2H41.0289ZM38.0289 36.6H65.8289V30.6H38.0289V36.6ZM65.8289 36.6C69.8869 36.6 73.1373 37.7458 75.3233 39.6249C77.4545 41.4571 78.8289 44.1979 78.8289 48H84.8289C84.8289 42.6021 82.8033 38.1429 79.2346 35.075C75.7205 32.0542 70.9709 30.6 65.8289 30.6V36.6ZM78.8289 48C78.8289 51.6816 77.4697 54.3736 75.3348 56.1902C73.1445 58.0539 69.887 59.2 65.8289 59.2V65.2C70.9708 65.2 75.7134 63.7461 79.223 60.7598C82.7881 57.7263 84.8289 53.3184 84.8289 48H78.8289ZM245.945 137V140H251.041L248.568 135.544L245.945 137ZM218.745 88L217.741 85.1727L214.402 86.3577L216.122 89.456L218.745 88ZM132.145 3.59999V0.599991H129.145V3.59999H132.145ZM132.145 137H129.145V140H132.145V137ZM166.545 137V140H169.545V137H166.545ZM166.545 92.2V89.2H163.545V92.2H166.545ZM184.145 92.2L186.828 90.8584L185.999 89.2H184.145V92.2ZM206.545 137L203.861 138.342L204.69 140H206.545V137ZM166.545 62.2H163.545V65.2H166.545V62.2ZM166.545 33.6V30.6H163.545V33.6H166.545ZM248.568 135.544L221.368 86.544L216.122 89.456L243.322 138.456L248.568 135.544ZM219.748 90.8273C233.122 86.0815 248.345 72.691 248.345 48H242.345C242.345 69.709 229.167 81.1185 217.741 85.1727L219.748 90.8273ZM248.345 48C248.345 34.9182 243.905 23.0255 235.379 14.3921C226.839 5.74386 214.431 0.599991 198.945 0.599991V6.59999C213.058 6.59999 223.85 11.2561 231.11 18.6079C238.384 25.9744 242.345 36.2818 242.345 48H248.345ZM198.945 0.599991H132.145V6.59999H198.945V0.599991ZM129.145 3.59999V137H135.145V3.59999H129.145ZM132.145 140H166.545V134H132.145V140ZM169.545 137V92.2H163.545V137H169.545ZM166.545 95.2H184.145V89.2H166.545V95.2ZM181.461 93.5416L203.861 138.342L209.228 135.658L186.828 90.8584L181.461 93.5416ZM206.545 140H245.945V134H206.545V140ZM193.745 59.2H166.545V65.2H193.745V59.2ZM169.545 62.2V33.6H163.545V62.2H169.545ZM166.545 36.6H193.745V30.6H166.545V36.6ZM193.745 36.6C197.697 36.6 201.147 37.7446 203.543 39.6657C205.877 41.5363 207.345 44.234 207.345 47.8H213.345C213.345 42.366 211.013 37.9637 207.296 34.9843C203.642 32.0554 198.792 30.6 193.745 30.6V36.6ZM207.345 47.8C207.345 51.6026 205.848 54.3367 203.543 56.1843C201.164 58.0916 197.723 59.2 193.745 59.2V65.2C198.766 65.2 203.625 63.8084 207.296 60.8657C211.041 57.8633 213.345 53.3974 213.345 47.8H207.345Z" fill="#308077"/>
</svg>
