<svg width="400" height="400" viewBox="0 0 400 400" fill="none" xmlns="http://www.w3.org/2000/svg">
<rect x="104.131" y="44.8484" width="45.1776" height="244.563" fill="#589F97"/>
<path d="M248.134 -3.27366e-08L293.312 44.8483L104.131 44.8483L149.308 -8.31345e-06L248.134 -3.27366e-08Z" fill="#589F97"/>
<path d="M142.955 155.568L165.544 110.719L293.312 110.719L248.134 155.568L142.955 155.568Z" fill="#589F97"/>
<mask id="mask0" mask-type="alpha" maskUnits="userSpaceOnUse" x="104" y="44" width="46" height="181">
<rect opacity="0.45" x="104.131" y="44.8484" width="45.1776" height="179.393" fill="#B9B9B9"/>
</mask>
<g mask="url(#mask0)">
<ellipse opacity="0.5" cx="143.298" cy="44.9461" rx="49.9474" ry="28.5372" fill="url(#paint0_radial)"/>
<ellipse opacity="0.5" cx="169.779" cy="155.568" rx="46.5894" ry="30.8332" fill="url(#paint1_radial)"/>
</g>
<mask id="mask1" mask-type="alpha" maskUnits="userSpaceOnUse" x="149" y="0" width="100" height="45">
<rect opacity="0.45" x="248.134" width="44.8483" height="98.826" transform="rotate(90 248.134 0)" fill="#B9B9B9"/>
</mask>
<g mask="url(#mask1)">
<ellipse opacity="0.5" cx="250.252" cy="37.14" rx="44.1476" ry="28.9419" transform="rotate(90 250.252 37.14)" fill="url(#paint2_radial)"/>
</g>
<path d="M248.134 0L293.312 44.8483V110.719H248.134V0Z" fill="#589F97"/>
<mask id="mask2" mask-type="alpha" maskUnits="userSpaceOnUse" x="248" y="49" width="46" height="62">
<rect opacity="0.45" x="293.312" y="110.719" width="45.1776" height="61.6665" transform="rotate(-180 293.312 110.719)" fill="#B9B9B9"/>
</mask>
<g mask="url(#mask2)">
<ellipse opacity="0.5" cx="255.899" cy="114.924" rx="44.4717" ry="28.7309" transform="rotate(-180 255.899 114.924)" fill="url(#paint3_radial)"/>
</g>
<mask id="mask3" mask-type="alpha" maskUnits="userSpaceOnUse" x="166" y="110" width="63" height="46">
<rect opacity="0.45" width="44.8483" height="62.1192" transform="matrix(-4.37979e-08 1 1 4.32473e-08 166.25 110.719)" fill="#B9B9B9"/>
</mask>
<g mask="url(#mask3)">
<ellipse opacity="0.7" rx="80.936" ry="28.8557" transform="matrix(0.642507 0.76628 0.770882 -0.636979 174.726 146.499)" fill="url(#paint4_radial)"/>
</g>
<path d="M142.955 155.568L165.544 110.719L292.959 259.63L258.723 289.061L142.955 155.568Z" fill="#589F97"/>
<path d="M23.4207 349.51L17.8228 339.13C20.3748 338.198 23.2972 335.571 23.2972 330.656C23.2972 325.402 19.8397 321.25 13.7478 321.25H0V349.51H7.07972V340.02H10.7019L15.312 349.51H23.4207ZM12.6776 333.664H7.07972V327.606H12.6776C14.5299 327.606 16.094 328.707 16.094 330.614C16.094 332.605 14.5299 333.664 12.6776 333.664Z" fill="#444444"/>
<path d="M34.2927 349.51V321.25H27.213V349.51H34.2927Z" fill="#444444"/>
<path d="M49.4397 350.019C56.8076 350.019 60.8825 346.248 60.8825 340.571C60.8825 330.063 45.3647 332.69 45.3647 329.089C45.3647 327.902 46.2703 327.055 48.3284 327.055C51.045 327.055 54.0498 328.029 56.3548 329.978L60.2239 324.767C57.3015 322.182 53.4735 320.827 49.0693 320.827C42.0307 320.827 38.1204 325.063 38.1204 329.809C38.1204 340.698 53.6793 337.605 53.6793 341.46C53.6793 342.816 52.1975 343.791 49.769 343.791C46.0233 343.791 42.9774 342.096 41.0017 340.062L37.256 345.528C40.0138 348.239 43.8829 350.019 49.4397 350.019Z" fill="#444444"/>
<path d="M76.7231 349.51V327.606H84.3791V321.25H61.9463V327.606H69.6434V349.51H76.7231Z" fill="#444444"/>
<path d="M107.877 349.51V343.155H94.8286V338.367H107.589V332.012H94.8286V327.606H107.877V321.25H87.7488V349.51H107.877Z" fill="#444444"/>
<path d="M136.807 349.51L125.57 334.469L136.231 321.25H127.505L119.067 332.859V321.25H111.987V349.51H119.067V341.248L120.919 338.876L128.122 349.51H136.807Z" fill="#444444"/>
<path d="M156.53 349.51V338.367H169.29V332.012H156.53V327.606H169.578V321.25H149.45V349.51H156.53Z" fill="#444444"/>
<path d="M198.15 349.51L187.778 321.25H178.887L168.556 349.51H176.582L177.94 345.443H188.766L190.124 349.51H198.15ZM186.831 339.088H179.834L183.332 328.453L186.831 339.088Z" fill="#444444"/>
<path d="M210.225 350.019C217.593 350.019 221.668 346.248 221.668 340.571C221.668 330.063 206.151 332.69 206.151 329.089C206.151 327.902 207.056 327.055 209.114 327.055C211.831 327.055 214.836 328.029 217.141 329.978L221.01 324.767C218.087 322.182 214.259 320.827 209.855 320.827C202.816 320.827 198.906 325.063 198.906 329.809C198.906 340.698 214.465 337.605 214.465 341.46C214.465 342.816 212.983 343.791 210.555 343.791C206.809 343.791 203.763 342.096 201.787 340.062L198.042 345.528C200.8 348.239 204.669 350.019 210.225 350.019Z" fill="#444444"/>
<path d="M232.059 349.51V321.25H224.98V349.51H232.059Z" fill="#444444"/>
<path d="M255.109 349.51V343.155H244.078V321.25H236.998V349.51H255.109Z" fill="#444444"/>
<path d="M283.605 349.51L272.368 334.469L283.029 321.25H274.302L265.864 332.859V321.25H258.785V349.51H265.864V341.248L267.717 338.876L274.92 349.51H283.605Z" fill="#444444"/>
<path d="M297.203 350.019C305.599 350.019 311.856 344.002 311.856 335.401C311.856 326.801 305.599 320.784 297.203 320.784C288.806 320.784 282.508 326.801 282.508 335.401C282.508 344.002 288.806 350.019 297.203 350.019ZM297.203 343.579C292.634 343.579 289.711 339.977 289.711 335.401C289.711 330.783 292.634 327.224 297.203 327.224C301.73 327.224 304.653 330.783 304.653 335.401C304.653 339.977 301.73 343.579 297.203 343.579Z" fill="#444444"/>
<path d="M346.581 349.51V321.25H336.743L330.98 336.588L325.259 321.25H315.422V349.51H322.501V331.122L329.416 349.51H332.545L339.501 331.122V349.51H346.581Z" fill="#444444"/>
<path d="M375.056 350.019C383.824 350.019 387.981 345.062 387.981 338.028V321.25H380.819V337.817C380.819 341.164 378.843 343.579 375.056 343.579C371.187 343.579 369.253 341.164 369.253 337.817V321.25H362.049V338.071C362.049 345.019 366.207 350.019 375.056 350.019Z" fill="#444444"/>
<path d="M400 349.51V321.25H392.92V349.51H400Z" fill="#444444"/>
<path d="M59.7978 398.39L61.9535 391.753H65.9183L66.8806 388.572H62.9928L65.1099 382.053H68.9593L69.8832 378.912H66.1493L68.3819 372.197H64.725L62.5694 378.912H58.9509L61.1066 372.197H57.4882L55.3325 378.912H51.4447L50.4823 382.053H54.2547L52.1761 388.572H48.4037L47.4028 391.753H51.0982L48.9041 398.39H52.5225L54.7166 391.753H58.3735L56.1409 398.39H59.7978ZM59.3744 388.572H55.7945L57.8731 382.053H61.4915L59.3744 388.572Z" fill="#444444"/>
<path d="M85.5179 398.861C91.1765 398.861 94.41 395.68 96.2577 392.421L91.5614 390.104C90.4836 392.264 88.174 393.913 85.5179 393.913C80.8602 393.913 77.4727 390.261 77.4727 385.313C77.4727 380.365 80.8602 376.713 85.5179 376.713C88.174 376.713 90.4836 378.401 91.5614 380.522L96.2577 378.166C94.4485 374.906 91.1765 371.765 85.5179 371.765C77.8192 371.765 71.8526 377.262 71.8526 385.313C71.8526 393.363 77.8192 398.861 85.5179 398.861Z" fill="#444444"/>
<path d="M111.675 398.861C119.451 398.861 125.11 393.206 125.11 385.313C125.11 377.42 119.451 371.765 111.675 371.765C103.938 371.765 98.2795 377.42 98.2795 385.313C98.2795 393.206 103.938 398.861 111.675 398.861ZM111.675 393.913C106.941 393.913 103.9 390.182 103.9 385.313C103.9 380.404 106.941 376.713 111.675 376.713C116.41 376.713 119.49 380.404 119.49 385.313C119.49 390.182 116.41 393.913 111.675 393.913Z" fill="#444444"/>
<path d="M151.926 398.39V372.197H146.46V388.651L134.565 372.197H128.945V398.39H134.412V381.307L146.653 398.39H151.926Z" fill="#444444"/>
<path d="M169.153 398.861C171.385 398.861 173.425 398.39 175.235 397.565L177.313 400L181.124 396.819L179.238 394.581C181.355 392.224 182.587 389.004 182.587 385.313C182.587 377.42 176.928 371.765 169.153 371.765C161.415 371.765 155.757 377.42 155.757 385.313C155.757 393.206 161.415 398.861 169.153 398.861ZM169.153 393.913C164.418 393.913 161.377 390.182 161.377 385.313C161.377 380.404 164.418 376.713 169.153 376.713C173.887 376.713 176.967 380.404 176.967 385.313C176.967 387.198 176.505 388.926 175.658 390.339L172.81 386.923L169.037 390.104L171.847 393.481C171 393.756 170.115 393.913 169.153 393.913Z" fill="#444444"/>
<path d="M198.009 398.861C205.824 398.861 209.596 394.424 209.596 387.905V372.197H204.014V387.748C204.014 391.4 201.974 393.913 198.009 393.913C194.045 393.913 191.966 391.4 191.966 387.748V372.197H186.423V387.944C186.423 394.384 190.195 398.861 198.009 398.861Z" fill="#444444"/>
<path d="M232.823 398.39V393.481H220.12V387.551H232.554V382.643H220.12V377.105H232.823V372.197H214.654V398.39H232.823Z" fill="#444444"/>
<path d="M257.883 398.39L252.109 388.415C254.88 387.748 257.729 385.274 257.729 380.64C257.729 375.77 254.457 372.197 249.106 372.197H237.096V398.39H242.562V389.083H246.566L251.608 398.39H257.883ZM248.298 384.174H242.562V377.105H248.298C250.492 377.105 252.147 378.441 252.147 380.64C252.147 382.839 250.492 384.174 248.298 384.174Z" fill="#444444"/>
<path d="M271.84 398.39V375.103H280V372.197H260.523V375.103H268.645V398.39H271.84Z" fill="#444444"/>
<path d="M301.068 398.39V395.484H287.442V386.452H300.799V383.546H287.442V375.103H301.068V372.197H284.247V398.39H301.068Z" fill="#444444"/>
<path d="M318.327 398.861C322.869 398.861 325.948 396.662 328.104 393.677L325.371 392.146C323.908 394.384 321.252 395.955 318.327 395.955C312.707 395.955 308.434 391.518 308.434 385.313C308.434 379.069 312.707 374.671 318.327 374.671C321.252 374.671 323.908 376.281 325.371 378.48L328.065 376.948C326.025 374.003 322.869 371.765 318.327 371.765C310.936 371.765 305.123 377.262 305.123 385.313C305.123 393.363 310.936 398.861 318.327 398.861Z" fill="#444444"/>
<path d="M353.578 398.39V372.197H350.383V383.467H335.371V372.197H332.176V398.39H335.371V386.373H350.383V398.39H353.578Z" fill="#444444"/>
<defs>
<radialGradient id="paint0_radial" cx="0" cy="0" r="1" gradientUnits="userSpaceOnUse" gradientTransform="translate(143.298 44.9461) rotate(90) scale(28.5372 49.9474)">
<stop/>
<stop offset="0.917127" stop-opacity="0"/>
</radialGradient>
<radialGradient id="paint1_radial" cx="0" cy="0" r="1" gradientUnits="userSpaceOnUse" gradientTransform="translate(169.779 155.568) rotate(90) scale(30.8332 46.5894)">
<stop/>
<stop offset="0.917127" stop-opacity="0"/>
</radialGradient>
<radialGradient id="paint2_radial" cx="0" cy="0" r="1" gradientUnits="userSpaceOnUse" gradientTransform="translate(250.252 37.14) rotate(90) scale(28.9419 44.1476)">
<stop/>
<stop offset="0.917127" stop-opacity="0"/>
</radialGradient>
<radialGradient id="paint3_radial" cx="0" cy="0" r="1" gradientUnits="userSpaceOnUse" gradientTransform="translate(255.899 114.924) rotate(90) scale(28.7309 44.4717)">
<stop/>
<stop offset="0.917127" stop-opacity="0"/>
</radialGradient>
<radialGradient id="paint4_radial" cx="0" cy="0" r="1" gradientUnits="userSpaceOnUse" gradientTransform="translate(80.936 28.8557) rotate(90) scale(28.8557 80.936)">
<stop/>
<stop offset="0.917127" stop-opacity="0"/>
</radialGradient>
</defs>
</svg>
