<svg width="40" height="40" viewBox="0 0 40 40" fill="none" xmlns="http://www.w3.org/2000/svg">
<path fill-rule="evenodd" clip-rule="evenodd" d="M20 0C8.95431 0 0 8.9541 0 20C0 31.0459 8.95431 40 20 40C31.0457 40 40 31.0459 40 20C40 8.9541 31.0457 0 20 0ZM19.443 16.9482L19.401 16.2559C19.2751 14.4629 20.3803 12.8242 22.129 12.1885C22.7725 11.9629 23.8637 11.9346 24.5772 12.1318C24.8569 12.2168 25.3885 12.499 25.7663 12.7539L26.4518 13.2197L27.2072 12.9795C27.6269 12.8525 28.1865 12.6406 28.4383 12.499C28.6761 12.3721 28.8859 12.3018 28.8859 12.3438C28.8859 12.584 28.3683 13.4033 27.9347 13.8555C27.3471 14.4912 27.515 14.5469 28.7041 14.124C29.4175 13.8838 29.4315 13.8838 29.2916 14.1523C29.2077 14.293 28.774 14.7871 28.3124 15.2393C27.529 16.0166 27.487 16.1006 27.487 16.751C27.487 17.7529 27.0113 19.8438 26.5357 20.9873C25.6543 23.1348 23.7658 25.3516 21.8772 26.4678C19.2191 28.0352 15.6798 28.4307 12.7 27.5127C11.7067 27.2021 10 26.4111 10 26.2695C10 26.2275 10.5176 26.1709 11.1471 26.1562C12.4622 26.1289 13.7772 25.7617 14.8964 25.1113L15.6518 24.6592L14.7844 24.3633C13.5534 23.9395 12.4482 22.9648 12.1684 22.0469C12.0844 21.75 12.1124 21.7363 12.8958 21.7363L13.7072 21.7217L13.0218 21.3975C12.2104 20.9873 11.4689 20.2959 11.1052 19.5898C10.8394 19.0811 10.5036 17.7959 10.6016 17.6973C10.6295 17.6543 10.9233 17.7393 11.2591 17.8525C12.2243 18.2051 12.3503 18.1201 11.7907 17.5273C10.7414 16.4541 10.4197 14.8584 10.9233 13.3467L11.1611 12.6689L12.0844 13.5869C13.973 15.4375 16.1974 16.5391 18.7435 16.8633L19.443 16.9482Z" fill="white"/>
</svg>
